<svg xmlns="http://www.w3.org/2000/svg" width="1180" height="610" viewBox="0 0 1180 610" role="img" aria-label="Pavel Kazakevich - Frontend Engineer">
  <defs>
    <linearGradient id="bgGrad" x1="0%" y1="0%" x2="100%" y2="100%">
      <stop offset="0%" stop-color="#0A0A0A"/>
      <stop offset="100%" stop-color="#111111"/>
    </linearGradient>
    <linearGradient id="accentGrad" x1="0%" y1="0%" x2="100%" y2="0%">
      <stop offset="0%" stop-color="#EA580C">
        <animate attributeName="stop-color" values="#EA580C;#F97316;#FB923C;#FBBF24;#EA580C" dur="8s" repeatCount="indefinite"/>
      </stop>
      <stop offset="50%" stop-color="#F97316">
        <animate attributeName="stop-color" values="#F97316;#FB923C;#EA580C;#F97316" dur="8s" repeatCount="indefinite"/>
      </stop>
      <stop offset="100%" stop-color="#FB923C">
        <animate attributeName="stop-color" values="#FB923C;#FBBF24;#F97316;#FB923C" dur="8s" repeatCount="indefinite"/>
      </stop>
    </linearGradient>
    <linearGradient id="asciiGrad" x1="0%" y1="0%" x2="0%" y2="100%">
      <stop offset="0%" stop-color="#FB923C"/>
      <stop offset="50%" stop-color="#F97316"/>
      <stop offset="100%" stop-color="#EA580C"/>
    </linearGradient>
    <linearGradient id="shimmerGrad" x1="0%" y1="0%" x2="100%" y2="0%">
      <stop offset="0%" stop-color="rgba(249,115,22,0)"/>
      <stop offset="50%" stop-color="rgba(249,115,22,0.35)"/>
      <stop offset="100%" stop-color="rgba(249,115,22,0)"/>
    </linearGradient>
    <linearGradient id="borderGrad" x1="0%" y1="0%" x2="100%" y2="100%">
      <stop offset="0%" stop-color="rgba(249,115,22,0.5)"/>
      <stop offset="50%" stop-color="rgba(255,255,255,0.08)"/>
      <stop offset="100%" stop-color="rgba(234,88,12,0.4)"/>
    </linearGradient>
    <radialGradient id="glowOrange" cx="30%" cy="40%" r="50%">
      <stop offset="0%" stop-color="#F97316" stop-opacity="0.18"/>
      <stop offset="100%" stop-color="#F97316" stop-opacity="0"/>
      <animate attributeName="cx" values="30%;35%;30%" dur="10s" repeatCount="indefinite"/>
    </radialGradient>
    <radialGradient id="glowAmber" cx="75%" cy="70%" r="45%">
      <stop offset="0%" stop-color="#FB923C" stop-opacity="0.12"/>
      <stop offset="100%" stop-color="#FB923C" stop-opacity="0"/>
      <animate attributeName="cy" values="70%;65%;70%" dur="12s" repeatCount="indefinite"/>
    </radialGradient>
    <radialGradient id="glowDeep" cx="90%" cy="20%" r="35%">
      <stop offset="0%" stop-color="#EA580C" stop-opacity="0.1"/>
      <stop offset="100%" stop-color="#EA580C" stop-opacity="0"/>
    </radialGradient>
    <filter id="glow" x="-50%" y="-50%" width="200%" height="200%">
      <feGaussianBlur stdDeviation="4" result="b"/>
      <feMerge><feMergeNode in="b"/><feMergeNode in="SourceGraphic"/></feMerge>
    </filter>
    <filter id="softGlow" x="-30%" y="-30%" width="160%" height="160%">
      <feGaussianBlur stdDeviation="8" result="b"/>
      <feMerge><feMergeNode in="b"/><feMergeNode in="SourceGraphic"/></feMerge>
    </filter>
    <filter id="glassBlur" x="-10%" y="-10%" width="120%" height="120%">
      <feGaussianBlur stdDeviation="0.5" result="b"/>
      <feMerge><feMergeNode in="b"/><feMergeNode in="SourceGraphic"/></feMerge>
    </filter>
    <clipPath id="cardClip"><rect x="20" y="20" width="1140" height="570" rx="24"/></clipPath>
    <clipPath id="scanClip"><rect x="20" y="20" width="1140" height="570" rx="24"/></clipPath>
    <mask id="noiseMask">
      <rect width="1180" height="610" fill="white"/>
      <g opacity="0.04">
        <rect x="0" y="0" width="4" height="4" fill="black"/><rect x="8" y="4" width="4" height="4" fill="black"/>
        <rect x="16" y="0" width="4" height="4" fill="black"/><rect x="24" y="8" width="4" height="4" fill="black"/>
        <rect x="32" y="4" width="4" height="4" fill="black"/><rect x="40" y="12" width="4" height="4" fill="black"/>
        <rect x="48" y="0" width="4" height="4" fill="black"/><rect x="56" y="8" width="4" height="4" fill="black"/>
        <rect x="64" y="4" width="4" height="4" fill="black"/><rect x="72" y="0" width="4" height="4" fill="black"/>
      </g>
    </mask>
    <pattern id="noise" width="80" height="80" patternUnits="userSpaceOnUse">
      <rect width="80" height="80" fill="#0A0A0A"/>
      <circle cx="10" cy="15" r="0.6" fill="#fff" opacity="0.03"/>
      <circle cx="35" cy="8" r="0.5" fill="#fff" opacity="0.025"/>
      <circle cx="60" cy="25" r="0.7" fill="#fff" opacity="0.03"/>
      <circle cx="20" cy="45" r="0.5" fill="#fff" opacity="0.02"/>
      <circle cx="55" cy="55" r="0.6" fill="#fff" opacity="0.035"/>
      <circle cx="75" cy="40" r="0.4" fill="#fff" opacity="0.02"/>
      <circle cx="5" cy="70" r="0.5" fill="#fff" opacity="0.03"/>
      <circle cx="42" cy="72" r="0.6" fill="#fff" opacity="0.025"/>
    </pattern>
  </defs>

  <rect width="1180" height="610" fill="url(#bgGrad)" rx="24"/>
  <rect width="1180" height="610" fill="url(#glowOrange)" rx="24"/>
  <rect width="1180" height="610" fill="url(#glowAmber)" rx="24"/>
  <rect width="1180" height="610" fill="url(#glowDeep)" rx="24"/>
  <rect width="1180" height="610" fill="url(#noise)" opacity="0.5" mask="url(#noiseMask)"/>

  <g clip-path="url(#cardClip)">
    <rect x="20" y="20" width="1140" height="570" rx="24" fill="#111111" opacity="0.92"/>
    <rect x="20" y="20" width="1140" height="570" rx="24" fill="none" stroke="url(#borderGrad)" stroke-width="1"/>
    <rect x="20" y="20" width="1140" height="570" rx="24" fill="url(#shimmerGrad)" opacity="0.15"/>
    <rect x="21" y="21" width="1138" height="120" rx="23" fill="url(#accentGrad)" opacity="0.03"/>

    <g opacity="0.5">
      <circle cx="120" cy="500" r="1.5" fill="#F97316"><animate attributeName="cy" values="500;480;500" dur="5s" repeatCount="indefinite"/><animate attributeName="opacity" values="0.3;0.8;0.3" dur="5s" repeatCount="indefinite"/></circle>
      <circle cx="340" cy="540" r="1" fill="#FB923C"><animate attributeName="cy" values="540;520;540" dur="7s" repeatCount="indefinite"/><animate attributeName="opacity" values="0.2;0.6;0.2" dur="7s" repeatCount="indefinite"/></circle>
      <circle cx="900" cy="480" r="1.2" fill="#FBBF24"><animate attributeName="cy" values="480;460;480" dur="6s" repeatCount="indefinite"/></circle>
      <circle cx="1050" cy="520" r="0.8" fill="#EA580C"><animate attributeName="cy" values="520;500;520" dur="8s" repeatCount="indefinite"/></circle>
      <circle cx="700" cy="560" r="1" fill="#F97316"><animate attributeName="opacity" values="0.1;0.5;0.1" dur="4s" repeatCount="indefinite"/></circle>
    </g>

    <rect x="20" y="20" width="1140" height="3" fill="url(#accentGrad)" opacity="0.6">
      <animate attributeName="y" values="20;587;20" dur="8s" repeatCount="indefinite"/>
      <animate attributeName="opacity" values="0;0.4;0" dur="8s" repeatCount="indefinite"/>
    </rect>

    <rect x="48" y="48" width="420" height="514" rx="16" fill="#0F0F0F" stroke="rgba(249,115,22,0.15)" stroke-width="1"/>
    <rect x="48" y="48" width="420" height="514" rx="16" fill="url(#accentGrad)" opacity="0.02"/>
    <rect x="48" y="48" width="420" height="60" rx="16" fill="#1A1A1A" opacity="0.8"/>
    <rect x="48" y="92" width="420" height="4" fill="#1A1A1A"/>
    <circle cx="72" cy="78" r="5" fill="#EA580C" opacity="0.8"/>
    <circle cx="92" cy="78" r="5" fill="#F97316" opacity="0.6"/>
    <circle cx="112" cy="78" r="5" fill="#FB923C" opacity="0.4"/>
    <text x="130" y="82" font-family="ui-monospace,Consolas,monospace" font-size="11" fill="#737373">~/portrait.sh</text>

    <g filter="url(#glow)" transform="translate(0,0)">
      <animateTransform attributeName="transform" type="translate" values="0,0;0,-3;0,0" dur="5s" repeatCount="indefinite"/>
      <text font-family="ui-monospace,Consolas,monospace" font-size="9.5" fill="url(#asciiGrad)" letter-spacing="0.5">
        <tspan x="68" y="130" opacity="0"><animate attributeName="opacity" from="0" to="1" begin="0.3s" dur="0.2s" fill="freeze"/>       ##########</tspan>
        <tspan x="68" y="144" opacity="0"><animate attributeName="opacity" from="0" to="1" begin="0.5s" dur="0.2s" fill="freeze"/>     ##@@@@@@@@@@##</tspan>
        <tspan x="68" y="158" opacity="0"><animate attributeName="opacity" from="0" to="1" begin="0.7s" dur="0.2s" fill="freeze"/>    ##@@######@@##</tspan>
        <tspan x="68" y="172" opacity="0"><animate attributeName="opacity" from="0" to="1" begin="0.9s" dur="0.2s" fill="freeze"/>   ##@@  ##  ##  @@##</tspan>
        <tspan x="68" y="186" opacity="0"><animate attributeName="opacity" from="0" to="1" begin="1.1s" dur="0.2s" fill="freeze"/>   ##@@ #@@# #@@# @@##</tspan>
        <tspan x="68" y="200" opacity="0"><animate attributeName="opacity" from="0" to="1" begin="1.3s" dur="0.2s" fill="freeze"/>   ##@@  @@  @@  @@ ##</tspan>
        <tspan x="68" y="214" opacity="0"><animate attributeName="opacity" from="0" to="1" begin="1.5s" dur="0.2s" fill="freeze"/>    ##@@@@@@@@@@@@##</tspan>
        <tspan x="68" y="228" opacity="0"><animate attributeName="opacity" from="0" to="1" begin="1.7s" dur="0.2s" fill="freeze"/>     ##@@@@@@@@@@##</tspan>
        <tspan x="68" y="248" opacity="0"><animate attributeName="opacity" from="0" to="1" begin="1.9s" dur="0.2s" fill="freeze"/>       @@@@@@@@</tspan>
        <tspan x="68" y="268" opacity="0"><animate attributeName="opacity" from="0" to="1" begin="2.1s" dur="0.2s" fill="freeze"/>    +--------------+</tspan>
        <tspan x="68" y="282" opacity="0"><animate attributeName="opacity" from="0" to="1" begin="2.3s" dur="0.2s" fill="freeze"/>    | DEV MODE ON  |</tspan>
        <tspan x="68" y="296" opacity="0"><animate attributeName="opacity" from="0" to="1" begin="2.5s" dur="0.2s" fill="freeze"/>    +--------------+</tspan>
        <tspan x="68" y="320" opacity="0"><animate attributeName="opacity" from="0" to="1" begin="2.7s" dur="0.2s" fill="freeze"/>  &gt; initializing...</tspan>
        <tspan x="68" y="334" opacity="0"><animate attributeName="opacity" from="0" to="1" begin="2.9s" dur="0.2s" fill="freeze"/>  &gt; loading skills ####</tspan>
        <tspan x="68" y="348" opacity="0"><animate attributeName="opacity" from="0" to="1" begin="3.1s" dur="0.2s" fill="freeze"/>  &gt; status: online</tspan>
        <tspan x="68" y="370" opacity="0"><animate attributeName="opacity" from="0" to="1" begin="3.3s" dur="0.2s" fill="freeze"/>  [pavel@moscow ~]$<animate attributeName="opacity" values="1;1;0;1" dur="1s" begin="3.5s" repeatCount="indefinite"/>|</tspan>
      </text>
    </g>

    <rect x="68" y="120" width="380" height="280" fill="url(#accentGrad)" opacity="0.03">
      <animate attributeName="y" values="120;400;120" dur="6s" repeatCount="indefinite"/>
    </rect>

    <rect x="500" y="48" width="632" height="514" rx="16" fill="#0F0F0F" stroke="rgba(255,255,255,0.08)" stroke-width="1"/>
    <rect x="500" y="48" width="632" height="514" rx="16" fill="url(#accentGrad)" opacity="0.015"/>
    <rect x="500" y="48" width="632" height="44" rx="16" fill="#1A1A1A"/>
    <rect x="500" y="80" width="632" height="12" fill="#1A1A1A"/>
    <circle cx="524" cy="70" r="5" fill="#EF4444" opacity="0.7"/>
    <circle cx="544" cy="70" r="5" fill="#FBBF24" opacity="0.7"/>
    <circle cx="564" cy="70" r="5" fill="#22C55E" opacity="0.7"/>
    <text x="590" y="74" font-family="ui-monospace,Consolas,monospace" font-size="11" fill="#737373">pavel@github - bash</text>

    <text x="530" y="120" font-family="system-ui,-apple-system,Segoe UI,sans-serif" font-size="22" fill="#A3A3A3" opacity="0">
      <animate attributeName="opacity" from="0" to="1" begin="0.5s" dur="0.4s" fill="freeze"/>Hi
    </text>
    <text x="530" y="158" font-family="system-ui,-apple-system,Segoe UI,sans-serif" font-size="32" font-weight="700" fill="#FAFAFA" opacity="0">
      <animate attributeName="opacity" from="0" to="1" begin="0.8s" dur="0.5s" fill="freeze"/>I'm <tspan fill="url(#accentGrad)">Pavel Kazakevich</tspan>
    </text>

    <text x="530" y="200" font-family="ui-monospace,Consolas,monospace" font-size="18" fill="url(#accentGrad)" filter="url(#glow)">
      <tspan opacity="0"><animate attributeName="opacity" values="0;1;1;0;0" keyTimes="0;0.05;0.22;0.25;1" dur="16s" repeatCount="indefinite"/>Frontend Engineer</tspan>
      <tspan x="530" dy="0" opacity="0"><animate attributeName="opacity" values="0;0;0;1;1;0;0" keyTimes="0;0.24;0.25;0.3;0.47;0.5;1" dur="16s" repeatCount="indefinite"/>React / Next.js Developer</tspan>
      <tspan x="530" dy="0" opacity="0"><animate attributeName="opacity" values="0;0;0;0;1;1;0;0" keyTimes="0;0.49;0.5;0.55;0.6;0.72;0.75;1" dur="16s" repeatCount="indefinite"/>B2B / SaaS Engineer</tspan>
      <tspan x="530" dy="0" opacity="0"><animate attributeName="opacity" values="0;0;0;0;0;1;1;0" keyTimes="0;0.74;0.75;0.8;0.85;0.9;0.97;1" dur="16s" repeatCount="indefinite"/>TypeScript Specialist</tspan>
      <tspan fill="#F97316" opacity="0"><animate attributeName="opacity" values="1;0;1;0;1;0;1;0" dur="1s" repeatCount="indefinite"/>|</tspan>
    </text>

    <g font-family="system-ui,-apple-system,Segoe UI,sans-serif" font-size="14">
      <text x="530" y="248" fill="#737373" opacity="0"><animate attributeName="opacity" from="0" to="1" begin="1.5s" dur="0.3s" fill="freeze"/><tspan fill="#F97316" font-weight="600">Location</tspan>  Moscow, Russia</text>
      <text x="530" y="276" fill="#737373" opacity="0"><animate attributeName="opacity" from="0" to="1" begin="1.8s" dur="0.3s" fill="freeze"/><tspan fill="#F97316" font-weight="600">Education</tspan>  Omsk State University - Programming &amp; IT</text>
      <text x="530" y="304" fill="#737373" opacity="0"><animate attributeName="opacity" from="0" to="1" begin="2.1s" dur="0.3s" fill="freeze"/><tspan fill="#F97316" font-weight="600">Focus</tspan>  B2B/SaaS at Nocodered / React / Next.js</text>
      <text x="530" y="332" fill="#737373" opacity="0"><animate attributeName="opacity" from="0" to="1" begin="2.4s" dur="0.3s" fill="freeze"/><tspan fill="#F97316" font-weight="600">Portfolio</tspan>  github.com/pablitodon</text>
      <text x="530" y="360" fill="#737373" opacity="0"><animate attributeName="opacity" from="0" to="1" begin="2.7s" dur="0.3s" fill="freeze"/><tspan fill="#F97316" font-weight="600">Email</tspan>  pavelkazakevich040196@gmail.com</text>
    </g>

    <text x="530" y="400" font-family="system-ui,-apple-system,Segoe UI,sans-serif" font-size="13" font-weight="600" fill="#FAFAFA" opacity="0">
      <animate attributeName="opacity" from="0" to="1" begin="3s" dur="0.3s" fill="freeze"/>Skills
    </text>
    <line x1="530" y1="408" x2="1100" y2="408" stroke="rgba(249,115,22,0.2)" stroke-width="1" opacity="0">
      <animate attributeName="opacity" from="0" to="1" begin="3.1s" dur="0.3s" fill="freeze"/>
    </line>

    <g font-family="ui-monospace,Consolas,monospace" font-size="12">
      <g opacity="0"><animate attributeName="opacity" from="0" to="1" begin="3.2s" dur="0.2s" fill="freeze"/><rect x="530" y="420" width="58" height="28" rx="14" fill="#1A1A1A" stroke="rgba(249,115,22,0.35)" stroke-width="1"/><text x="544" y="438" fill="#FAFAFA">React</text></g>
      <g opacity="0"><animate attributeName="opacity" from="0" to="1" begin="3.35s" dur="0.2s" fill="freeze"/><rect x="596" y="420" width="68" height="28" rx="14" fill="#1A1A1A" stroke="rgba(249,115,22,0.35)" stroke-width="1"/><text x="608" y="438" fill="#FAFAFA">Next.js</text></g>
      <g opacity="0"><animate attributeName="opacity" from="0" to="1" begin="3.5s" dur="0.2s" fill="freeze"/><rect x="672" y="420" width="88" height="28" rx="14" fill="#1A1A1A" stroke="rgba(249,115,22,0.35)" stroke-width="1"/><text x="684" y="438" fill="#FAFAFA">TypeScript</text></g>
      <g opacity="0"><animate attributeName="opacity" from="0" to="1" begin="3.65s" dur="0.2s" fill="freeze"/><rect x="768" y="420" width="72" height="28" rx="14" fill="#1A1A1A" stroke="rgba(249,115,22,0.35)" stroke-width="1"/><text x="780" y="438" fill="#FAFAFA">Tailwind</text></g>
      <g opacity="0"><animate attributeName="opacity" from="0" to="1" begin="3.8s" dur="0.2s" fill="freeze"/><rect x="848" y="420" width="108" height="28" rx="14" fill="#1A1A1A" stroke="rgba(249,115,22,0.35)" stroke-width="1"/><text x="860" y="438" fill="#FAFAFA">TanStack Query</text></g>
      <g opacity="0"><animate attributeName="opacity" from="0" to="1" begin="3.95s" dur="0.2s" fill="freeze"/><rect x="964" y="420" width="68" height="28" rx="14" fill="#1A1A1A" stroke="rgba(249,115,22,0.35)" stroke-width="1"/><text x="976" y="438" fill="#FAFAFA">Docker</text></g>
      <g opacity="0"><animate attributeName="opacity" from="0" to="1" begin="4.1s" dur="0.2s" fill="freeze"/><rect x="530" y="458" width="42" height="28" rx="14" fill="#1A1A1A" stroke="rgba(249,115,22,0.35)" stroke-width="1"/><text x="542" y="476" fill="#FAFAFA">Git</text></g>
      <g opacity="0"><animate attributeName="opacity" from="0" to="1" begin="4.25s" dur="0.2s" fill="freeze"/><rect x="580" y="458" width="58" height="28" rx="14" fill="#1A1A1A" stroke="rgba(249,115,22,0.35)" stroke-width="1"/><text x="592" y="476" fill="#FAFAFA">Figma</text></g>
      <g opacity="0"><animate attributeName="opacity" from="0" to="1" begin="4.4s" dur="0.2s" fill="freeze"/><rect x="646" y="458" width="68" height="28" rx="14" fill="#1A1A1A" stroke="rgba(249,115,22,0.35)" stroke-width="1"/><text x="658" y="476" fill="#FAFAFA">Zustand</text></g>
      <g opacity="0"><animate attributeName="opacity" from="0" to="1" begin="4.55s" dur="0.2s" fill="freeze"/><rect x="722" y="458" width="82" height="28" rx="14" fill="#1A1A1A" stroke="rgba(249,115,22,0.35)" stroke-width="1"/><text x="734" y="476" fill="#FAFAFA">Playwright</text></g>
      <g opacity="0"><animate attributeName="opacity" from="0" to="1" begin="4.7s" dur="0.2s" fill="freeze"/><rect x="812" y="458" width="52" height="28" rx="14" fill="#1A1A1A" stroke="rgba(249,115,22,0.35)" stroke-width="1"/><text x="824" y="476" fill="#FAFAFA">SSR</text></g>
      <g opacity="0"><animate attributeName="opacity" from="0" to="1" begin="4.85s" dur="0.2s" fill="freeze"/><rect x="872" y="458" width="88" height="28" rx="14" fill="#1A1A1A" stroke="rgba(249,115,22,0.35)" stroke-width="1"/><text x="884" y="476" fill="#FAFAFA">WebSocket</text></g>
    </g>

    <g opacity="0"><animate attributeName="opacity" from="0" to="1" begin="5.2s" dur="0.4s" fill="freeze"/>
      <g>
        <rect x="530" y="510" width="36" height="36" rx="10" fill="#1A1A1A" stroke="rgba(249,115,22,0.3)" stroke-width="1"/>
        <path d="M542 526c0-2.2 1.8-4 4-4s4 1.8 4 4c0 2-1.5 3.6-3.5 3.9v2.1h-1v-2.1c-2-.3-3.5-1.9-3.5-3.9zm4-2.5c-1.1 0-2 .9-2 2s.9 2 2 2 2-.9 2-2-.9-2-2-2z" fill="#F97316" transform="translate(0,-2) scale(0.85)"/>
        <path d="M538 518h12v12h-12z" fill="none"/>
        <path d="M541 521.5c-1.5.5-2.5 1.8-2.5 3.3 0 2 1.6 3.6 3.6 3.6h5.8c2 0 3.6-1.6 3.6-3.6 0-1.5-1-2.8-2.5-3.3" fill="none" stroke="#F97316" stroke-width="1.2" stroke-linecap="round"/>
        <circle cx="547" cy="528" r="6" fill="none" stroke="#F97316" stroke-width="1.2"/>
      </g>
      <g>
        <rect x="578" y="510" width="36" height="36" rx="10" fill="#1A1A1A" stroke="rgba(249,115,22,0.3)" stroke-width="1"/>
        <path d="M586 528l14-6-14-4v10zm0 0l4-3" fill="none" stroke="#F97316" stroke-width="1.3" stroke-linejoin="round"/>
      </g>
      <g>
        <rect x="626" y="510" width="36" height="36" rx="10" fill="#1A1A1A" stroke="rgba(249,115,22,0.3)" stroke-width="1"/>
        <rect x="634" y="520" width="20" height="14" rx="2" fill="none" stroke="#F97316" stroke-width="1.2"/>
        <path d="M634 520l10 8 10-8" fill="none" stroke="#F97316" stroke-width="1.2"/>
      </g>
      <g>
        <rect x="674" y="510" width="36" height="36" rx="10" fill="#1A1A1A" stroke="rgba(249,115,22,0.3)" stroke-width="1"/>
        <circle cx="692" cy="528" r="7" fill="none" stroke="#F97316" stroke-width="1.2"/>
        <path d="M692 524v8M688 528h8" stroke="#F97316" stroke-width="1.2" stroke-linecap="round"/>
      </g>
    </g>

    <rect x="500" y="48" width="632" height="514" rx="16" fill="url(#accentGrad)" opacity="0.02"/>
    <rect x="502" y="50" width="200" height="80" rx="8" fill="white" opacity="0.02" transform="rotate(-15 600 90)"/>
  </g>
</svg>
